<?xml version="1.0" encoding="utf-8"?>
<!-- Generator: Adobe Illustrator 18.0.0, SVG Export Plug-In . SVG Version: 6.00 Build 0)  -->
<!DOCTYPE svg PUBLIC "-//W3C//DTD SVG 1.1//EN" "http://www.w3.org/Graphics/SVG/1.1/DTD/svg11.dtd">
<svg version="1.1" id="Layer_1" xmlns="http://www.w3.org/2000/svg" xmlns:xlink="http://www.w3.org/1999/xlink" x="0px" y="0px"
	 viewBox="0 0 1400 980" enable-background="new 0 0 1400 980" xml:space="preserve">
<g>
	<rect fill="#0099ff" fill-opacity="1" width="1400" height="980"/>
	<g>
		<g>
			<rect x="629.6" y="76.4" fill="#C49A6C" width="315" height="436.8"/>
			<rect x="659.6" y="106.4" fill="#BCBEC0" width="255" height="376.8"/>
			<rect x="571.5" y="76.4" fill="#A97C50" width="58.1" height="436.8"/>
			<rect x="867.2" y="106.4" fill="#A97C50" width="47.4" height="376.9"/>
			<g opacity="0.38">
				<path fill="#FFFFFF" d="M693.7,287.3c0.3,0,0.5,0.1,0.8,0.1c2.7-7.2,8.8-12.3,16.2-13.3c0.2,0,0.5-0.1,0.7-0.1
					c0.1-0.3,0.3-0.7,0.4-1c0.2-0.4,0.3-0.8,0.5-1.2c0.2-0.4,0.4-0.9,0.6-1.3c0.2-0.4,0.3-0.8,0.5-1.1c0.2-0.4,0.4-0.9,0.7-1.3
					c0.2-0.4,0.4-0.7,0.6-1.1c0.2-0.4,0.5-0.9,0.7-1.3c0.2-0.3,0.4-0.7,0.6-1c0.3-0.4,0.5-0.9,0.8-1.3c0.2-0.3,0.4-0.6,0.6-1
					c0.3-0.5,0.6-0.9,0.9-1.3c0.2-0.3,0.4-0.6,0.6-0.9c0.3-0.5,0.7-1,1.1-1.5c0.2-0.2,0.3-0.5,0.5-0.7c0.5-0.7,1.1-1.4,1.6-2.1
					c0.7-0.8,1.4-1.7,2.1-2.5c0.3-0.3,0.5-0.5,0.8-0.8c0.5-0.5,1-1,1.4-1.5c0.3-0.3,0.6-0.6,1-0.9c0.5-0.4,0.9-0.9,1.4-1.3
					c0.3-0.3,0.7-0.6,1-0.9c0.5-0.4,0.9-0.8,1.4-1.1c0.4-0.3,0.7-0.5,1.1-0.8c0.5-0.3,0.9-0.7,1.4-1c0.4-0.3,0.8-0.5,1.1-0.8
					c0.5-0.3,0.9-0.6,1.4-0.9c0.4-0.2,0.8-0.5,1.2-0.7c0.5-0.3,1-0.6,1.5-0.9c0.4-0.2,0.8-0.4,1.2-0.6c0.5-0.3,1-0.5,1.5-0.8
					c0.4-0.2,0.8-0.4,1.2-0.6c0.5-0.2,1-0.5,1.5-0.7c0.4-0.2,0.8-0.3,1.2-0.5c0.5-0.2,1-0.4,1.6-0.6c0.4-0.1,0.8-0.3,1.3-0.4
					c0.5-0.2,1.1-0.3,1.6-0.5c0.4-0.1,0.9-0.2,1.3-0.3c0.5-0.1,1.1-0.3,1.6-0.4c0.4-0.1,0.9-0.2,1.3-0.3c0.5-0.1,1.1-0.2,1.6-0.3
					c0.5-0.1,0.9-0.1,1.4-0.2c0.5-0.1,1.1-0.2,1.6-0.2c0.5,0,0.9-0.1,1.4-0.1c0.5,0,1.1-0.1,1.6-0.1c0.5,0,1,0,1.4,0
					c0.4,0,0.8,0,1.2,0c0.3,0,0.6,0,0.8,0c14.9,0.2,29.2,6.8,40.3,18.4c0.8,0.8,1.6,1.7,2.3,2.6c0.3,0.3,0.5,0.6,0.7,0.9
					c0.5,0.6,1,1.2,1.5,1.8c0.3,0.4,0.5,0.7,0.8,1.1c0.4,0.6,0.9,1.2,1.3,1.7c0.3,0.4,0.5,0.8,0.8,1.2c0.3,0.5,0.7,1,1,1.5
					c0.3,0,0.6,0,0.9,0c0.1,0,0.2,0,0.3,0c0.5,0,1,0,1.4,0.1c0.2,0,0.3,0,0.5,0.1c0.3,0,0.7,0.1,1,0.1c0.2,0,0.3,0.1,0.5,0.1
					c0.5,0.1,0.9,0.2,1.4,0.3c0.1,0,0.2,0.1,0.3,0.1c0.4,0.1,0.7,0.2,1.1,0.4c0.2,0.1,0.3,0.1,0.5,0.2c0.3,0.1,0.7,0.3,1,0.4
					c0.1,0.1,0.2,0.1,0.3,0.2c0,0,0.1,0,0.1,0c-12.2-25.1-34.8-41.2-59.6-42.3C728.9,222.6,699.4,249.6,693.7,287.3z"/>
				<path fill="#FFFFFF" d="M811.8,264.8c-2.2-3.5-4.8-6.7-7.6-9.7c-10.7-11.3-24.5-17.6-38.9-17.8c-0.3,0-0.5,0-0.8,0
					c-15.7,0-30.3,7.1-40.9,20c-4.1,5-7.5,10.6-10,16.7c0.1,0,0.2,0,0.3,0c0.2,0,0.5,0,0.7,0c0.4,0,0.7,0.1,1.1,0.1
					c0.3,0,0.5,0.1,0.8,0.1c0.3,0.1,0.6,0.1,1,0.2c0.3,0.1,0.6,0.1,0.8,0.2c0.3,0.1,0.7,0.2,1,0.3c0.3,0.1,0.6,0.2,0.9,0.3
					c0.5,0.2,0.9,0.4,1.4,0.6c0.2,0.1,0.4,0.2,0.7,0.3c0.3,0.2,0.6,0.3,1,0.5c0.2,0.1,0.4,0.3,0.6,0.4c0.3,0.2,0.6,0.4,0.9,0.6
					c0.2,0.1,0.4,0.3,0.6,0.4c0.1,0.1,0.2,0.1,0.3,0.2c0-0.1,0.1-0.2,0.1-0.3c0.1-0.3,0.2-0.6,0.4-0.8c0.1-0.3,0.3-0.6,0.4-1
					c0.1-0.3,0.3-0.5,0.4-0.8c0.2-0.3,0.3-0.6,0.5-0.9c0.1-0.3,0.3-0.5,0.4-0.8c0.2-0.3,0.3-0.6,0.5-0.9c0.1-0.3,0.3-0.5,0.4-0.8
					c0.2-0.3,0.4-0.6,0.6-0.9c0.1-0.2,0.3-0.5,0.4-0.7c0.2-0.3,0.4-0.6,0.6-1c0.1-0.2,0.3-0.4,0.4-0.7c0.2-0.3,0.5-0.7,0.7-1
					c0.1-0.2,0.3-0.4,0.4-0.5c0.4-0.5,0.8-1,1.2-1.5c8.7-11,20.7-17.2,33.8-17.3l0.6,0c3,0,5.9,0.3,8.8,0.9
					c8.6,1.8,16.7,6.4,23.4,13.2c0,0,0,0,0,0c0.7,0.7,1.4,1.5,2.1,2.3c0.1,0.1,0.2,0.2,0.3,0.3c0.7,0.8,1.3,1.6,1.9,2.4
					c0.1,0.1,0.1,0.1,0.2,0.2c0,0,0.1,0,0.1,0c0.5-0.3,1-0.6,1.6-0.9c0.1-0.1,0.2-0.1,0.3-0.2c0.5-0.3,1.1-0.5,1.7-0.7
					c0.1,0,0.1-0.1,0.2-0.1c0.6-0.2,1.1-0.4,1.7-0.6c0.1,0,0.1,0,0.2-0.1c0.6-0.2,1.2-0.3,1.8-0.4
					C811.7,264.8,811.8,264.8,811.8,264.8z"/>
				<path fill="#FFFFFF" d="M798.3,273.6c0.4-0.5,0.7-1.1,1.1-1.6c0.1-0.1,0.2-0.2,0.2-0.3c0.4-0.4,0.7-0.9,1.1-1.3
					c0.1-0.1,0.2-0.2,0.3-0.3c0.5-0.4,0.9-0.9,1.4-1.3c0,0,0.1-0.1,0.1-0.1c-1.3-1.8-2.8-3.4-4.3-5c-8.6-8.7-19.5-13.5-30.8-13.5
					l-0.6,0c-12.6,0.2-24.1,6.1-32.4,16.6c-3,3.8-5.5,8.1-7.4,12.8c0.2,0.2,0.3,0.3,0.5,0.5c0.2,0.2,0.4,0.4,0.5,0.6
					c0.2,0.3,0.5,0.6,0.7,0.8c0.2,0.2,0.3,0.4,0.5,0.6c0.2,0.3,0.5,0.7,0.7,1c0.1,0.2,0.2,0.4,0.3,0.5c0.3,0.5,0.6,1.1,0.9,1.6
					c0.9-0.3,1.9-0.5,2.8-0.6c0.4-0.1,0.8-0.1,1.1-0.1c0.1,0,0.2,0,0.3,0c0.3,0,0.5,0,0.8,0c0.1,0,0.3,0,0.4,0c0.2,0,0.5,0,0.7,0
					c0.1,0,0.3,0,0.4,0c0.1,0,0.2,0,0.3,0c1.4-3.5,3.2-6.7,5.4-9.6c6.3-8.3,15.2-13.2,24.9-13.6c9.2-0.4,18.1,3.2,25,10.1
					c1.3,1.3,2.5,2.6,3.6,4.1c0-0.1,0.1-0.1,0.1-0.2c0.3-0.5,0.6-1,0.9-1.5C798.1,273.9,798.2,273.7,798.3,273.6z"/>
				<path fill="#FFFFFF" d="M738.7,286.8c-1.5-0.2-2.9-0.2-4.4,0c-1.1,0.1-2.2,0.4-3.3,0.8l-0.8,0.3l-0.4-0.8
					c-1.1-2.4-2.6-4.5-4.5-6.3c-3.6-3.3-8.3-5.1-13.2-4.8c-0.4,0-0.8,0.1-1.2,0.1c-6.9,0.9-12.7,5.8-15,12.8l-0.3,0.9l-0.8-0.2
					c-0.8-0.2-1.6-0.3-2.4-0.4c-1-0.1-2.1-0.1-3.1,0.1c-4,0.5-7.5,2.7-10,6c-2.5,3.3-3.5,7.5-3,11.6c1,7.9,7.4,13.8,14.9,13.8
					c0.6,0,1.3,0,1.9-0.1c1.2-0.2,2.3-0.5,3.5-0.9l1.1-0.4l0.2,1.2c1.6,8.4,8.6,14.4,16.8,14.4c0.7,0,1.5,0,2.2-0.1
					c6.1-0.8,11.4-5.1,13.7-11.1l0.3-0.8l0.8,0.2c2.2,0.6,4.6,0.8,6.9,0.5c4.7-0.6,8.9-3.1,11.7-7c2.9-3.9,4.2-8.8,3.6-13.7
					C753,294.4,746.7,287.8,738.7,286.8z"/>
				<path fill="#FFFFFF" d="M853.4,287.4c-1-7.9-7.4-13.8-14.9-13.8c-0.6,0-1.3,0-1.9,0.1c-1.8,0.2-3.6,0.8-5.2,1.7l-0.8,0.4
					l-0.5-0.8c-1.4-2.2-3.1-4-5.2-5.4c-2.9-2-6.3-3.1-9.8-3.2c-0.5,0-1,0-1.5,0.1c-0.3,0-0.7,0.1-1,0.1c-2.9,0.4-5.7,1.5-8.1,3.2
					c-2.8,2-5,4.8-6.3,8.1c-0.6,1.3-1,2.8-1.2,4.2l-0.2,0.9l-0.8-0.1c-1.1-0.1-2.2,0-3.3,0.1c-9.7,1.3-16.5,10.6-15.3,20.7
					c1.1,9.2,8.6,16.2,17.5,16.2c0.7,0,1.5-0.1,2.3-0.2c2.3-0.3,4.5-1.1,6.6-2.3l0.7-0.4l0.5,0.7c3.7,5.2,9.8,7.9,15.9,7.1
					c8.9-1.2,15.4-9.4,14.9-18.8l-0.1-1.2l1.1,0.1c1.2,0.1,2.4,0.1,3.6,0C848.6,303.9,854.4,296,853.4,287.4z"/>
			</g>
		</g>
		<g>
			<path fill="#C49A6C" d="M1302.7,164.1L1302.7,164.1l-1.4-0.1l0,0h-244.5v111.9H1284h18.7h15.8v-94.6
				C1318.5,172.2,1311.5,164.8,1302.7,164.1z"/>
			<path fill="#A97C50" d="M1074,275.9h-34.5v-94.6c0-9.5,7.7-17.2,17.2-17.2l0,0c9.5,0,17.2,7.7,17.2,17.2V275.9z"/>
			<path fill="#91653A" d="M1039.5,306.4l0-0.1c4.2-9.7,4.2-20.7,0-30.4v0h72.5v30.5H1039.5z"/>
			<path fill="#B4885B" d="M1318.5,275.9L1318.5,275.9c-4.3,9.7-4.3,20.7,0,30.4l0,0.1H1074l0-0.1c-4.2-9.7-4.2-20.7,0-30.4v0
				H1318.5z"/>
			<rect x="1039.5" y="306.4" fill="#A97C50" width="34.5" height="30.7"/>
			<rect x="1074" y="306.4" fill="#C49A6C" width="244.5" height="30.7"/>
			<g>
				<polygon fill="#CE3D36" points="1065.3,395.4 1058.3,412.1 1051.3,395.4 1051.3,337.1 1065.3,337.1 				"/>
				<rect x="1065.3" y="337.1" fill="#EF6B60" width="242.7" height="58.3"/>
				<polygon fill="#E84D42" points="1308,395.4 1301,412.1 1058.3,412.1 1065.3,395.4 				"/>
			</g>
		</g>
		<g>
			<g>
				<polygon fill="none" points="284,441.7 284,441.7 291.9,503.3 287.9,472.3 				"/>
				<polygon fill="#B3B3B3" points="284,441.7 246,142.6 284,441.7 				"/>
				<polygon fill="#B3B3B3" points="246,142.6 377,125.9 379.7,83.6 105.3,65.6 81.5,428.4 204.3,436.5 168.2,152.5 				"/>
				<polygon fill="#E6E6E6" points="246,142.6 168.2,152.5 204.3,436.5 214.1,513.2 291.9,503.3 284,441.7 				"/>
				<polygon fill="#FFFFFF" points="441,117.8 377,125.9 246,142.6 284,441.7 287.9,472.3 476.9,479.7 486.9,478.5 				"/>
				<polygon fill="#E6E6E6" points="291.9,503.3 476.9,479.7 287.9,472.3 				"/>
			</g>
			<g>
				<path fill="#EF6B60" d="M264,299.3c0.5-0.1,1-0.1,1.5-0.1c3.1-7.7,7.4-14.8,12.8-21c13.4-15.5,31.7-23.6,50.8-23.3
					c17.9,0.3,34.6,7.8,47.4,20.7c3.9,3.9,7.3,8.2,10.3,12.8c5.2-0.4,10.2,1,14.3,3.7c-13.6-29.3-41.3-50.9-73.9-52.2
					c-42.2-1.8-78.7,29.7-85.1,74.3c1,0.1,2,0.2,3,0.5C247.9,306.6,255,300.4,264,299.3z"/>
				<path fill="#FDD836" d="M329.1,254.8c-19.2-0.3-37.4,7.8-50.8,23.3c-5.4,6.3-9.7,13.4-12.8,21c6.3-0.4,12.2,1.8,16.6,5.7
					c2.3-5.6,5.4-10.9,9.3-15.6c10.3-12.5,24.5-19.2,39.7-19.4c14.3-0.2,27.9,5.5,38.4,15.8c2.1,2.1,4.1,4.3,5.9,6.7
					c2.9-2,6.4-3.4,10.2-3.9c0.4-0.1,0.8-0.1,1.2-0.1c-2.9-4.6-6.4-8.9-10.3-12.8C363.7,262.6,347,255.1,329.1,254.8z"/>
				<path fill="#8AC249" d="M375.4,292.3c-1.8-2.4-3.8-4.6-5.9-6.7c-10.5-10.3-24.1-16-38.4-15.8c-15.1,0.2-29.4,7-39.7,19.4
					c-3.9,4.7-7,10-9.3,15.6c2.3,2.1,4.3,4.6,5.6,7.5c1.3-0.4,2.7-0.7,4.1-0.9c1.9-0.2,3.8-0.2,5.6,0c1.6-4.1,3.8-8,6.6-11.5
					c7.4-9.4,17.8-14.7,29-15.1c10.8-0.4,21.1,3.6,29.1,11.2c1.9,1.8,3.7,3.8,5.3,6C369.1,298.1,371.9,294.8,375.4,292.3z"/>
				<path fill="#BDBDBD" d="M287.7,312.4c-1.3-2.9-3.3-5.5-5.6-7.5c-4.4-3.9-10.3-6.1-16.6-5.7c-0.5,0-1,0.1-1.5,0.1
					c-9,1.1-16.1,7.3-18.8,15.3c-1-0.2-2-0.4-3-0.5c-1.3-0.1-2.6-0.1-3.9,0.1c-10.5,1.3-17.9,10.9-16.6,21.4
					c1.3,10.5,10.9,17.9,21.4,16.6c1.5-0.2,3-0.6,4.4-1.1c2.2,11.1,12.6,18.7,23.9,17.3c8-1,14.5-6.3,17.3-13.3
					c2.8,0.8,5.7,1,8.7,0.6c12.2-1.6,20.9-12.7,19.3-24.9c-1.3-10.3-9.5-18.1-19.4-19.3c-1.8-0.2-3.7-0.2-5.6,0
					C290.4,311.6,289,311.9,287.7,312.4z"/>
				<path fill="#BDBDBD" d="M414.2,296.5c-2.4,0.3-4.6,1-6.6,2.1c-1.7-2.6-3.9-4.8-6.5-6.5c-4.1-2.7-9.1-4.1-14.3-3.7
					c-0.4,0-0.8,0.1-1.2,0.1c-3.8,0.5-7.2,1.9-10.2,3.9c-3.5,2.4-6.3,5.8-8,9.7c-0.7,1.6-1.2,3.3-1.5,5c-1.4-0.1-2.8,0-4.2,0.1
					c-12.2,1.6-20.9,12.7-19.3,24.9c1.6,12.2,12.7,20.9,24.9,19.3c3-0.4,5.8-1.4,8.3-2.8c4.5,6.1,12.1,9.6,20.1,8.6
					c11.4-1.4,19.5-11.4,18.8-22.7c1.5,0.2,3,0.2,4.5,0c10.5-1.3,17.9-10.9,16.6-21.4C434.3,302.6,424.7,295.1,414.2,296.5z"/>
			</g>
		</g>
		<g>
			<g>
				<path fill="#7D7E7E" d="M351.9,872c5.3,5.3,8.2,8.2,13.5,13.5h114.5c5.3-5.3,8.2-8.2,13.5-13.5v-13.3H351.9V872z"/>
				<path fill="#7D7E7E" d="M479.8,678.3H365.4c-5.3,5.3-8.2,8.2-13.5,13.5v12.1v1.1h141.4v-1.1v-12.1
					C488,686.5,485.1,683.6,479.8,678.3z"/>
				<rect x="365.4" y="669.2" fill="#636463" width="114.5" height="9.1"/>
				<polygon fill="#4B4A4B" points="479.8,660.1 479.1,660.1 470.6,660.1 464.2,660.1 455.7,660.1 449.3,660.1 440.7,660.1 
					434.3,660.1 425.8,660.1 419.4,660.1 410.9,660.1 404.5,660.1 395.9,660.1 389.5,660.1 381,660.1 374.6,660.1 366.1,660.1 
					365.4,660.1 365.4,669.2 479.8,669.2 				"/>
				<path fill="#7DB141" d="M366.1,647c0-2.4,1.9-4.3,4.3-4.3l0,0c2.4,0,4.3,1.9,4.3,4.3v13.1h6.4V647c0-2.4,1.9-4.3,4.3-4.3
					c2.4,0,4.3,1.9,4.3,4.3v13.1h6.4V647c0-2.4,1.9-4.3,4.3-4.3c2.4,0,4.3,1.9,4.3,4.3v13.1h6.4V647c0-2.4,1.9-4.3,4.3-4.3
					c2.4,0,4.3,1.9,4.3,4.3v13.1h6.4V647c0-2.4,1.9-4.3,4.3-4.3c2.4,0,4.3,1.9,4.3,4.3v13.1h6.4V647c0-2.4,1.9-4.3,4.3-4.3
					c2.4,0,4.3,1.9,4.3,4.3v13.1h6.4V647c0-2.4,1.9-4.3,4.3-4.3c2.4,0,4.3,1.9,4.3,4.3v13.1h6.4V647c0-2.4,1.9-4.3,4.3-4.3l0,0
					c2.4,0,4.3,1.9,4.3,4.3v13.1h0.7h6.3v-15.2c0-6.2-5-11.2-11.2-11.2H370.2c-6.2,0-11.2,5-11.2,11.2v15.2h6.3h0.7V647z"/>
				<path fill="#649E42" d="M370.3,642.8L370.3,642.8c-2.4,0-4.3,1.9-4.3,4.3v13.1h8.5V647C374.6,644.7,372.7,642.8,370.3,642.8z"/>
				<path fill="#649E42" d="M385.3,642.8c-2.4,0-4.3,1.9-4.3,4.3v13.1h8.5V647C389.5,644.7,387.6,642.8,385.3,642.8z"/>
				<path fill="#649E42" d="M400.2,642.8c-2.4,0-4.3,1.9-4.3,4.3v13.1h8.5V647C404.5,644.7,402.5,642.8,400.2,642.8z"/>
				<path fill="#649E42" d="M415.1,642.8c-2.4,0-4.3,1.9-4.3,4.3v13.1h8.5V647C419.4,644.7,417.5,642.8,415.1,642.8z"/>
				<path fill="#649E42" d="M430.1,642.8c-2.4,0-4.3,1.9-4.3,4.3v13.1h8.5V647C434.3,644.7,432.4,642.8,430.1,642.8z"/>
				<path fill="#649E42" d="M445,642.8c-2.4,0-4.3,1.9-4.3,4.3v13.1h8.5V647C449.3,644.7,447.4,642.8,445,642.8z"/>
				<path fill="#649E42" d="M459.9,642.8c-2.4,0-4.3,1.9-4.3,4.3v13.1h8.5V647C464.2,644.7,462.3,642.8,459.9,642.8z"/>
				<path fill="#649E42" d="M474.9,642.8L474.9,642.8c-2.4,0-4.3,1.9-4.3,4.3v13.1h8.5V647C479.1,644.7,477.2,642.8,474.9,642.8z"/>
			</g>
			<g>
				<rect x="351.9" y="705.1" fill="#649E42" width="59" height="153.7"/>
				<rect x="410.9" y="705.1" fill="#7DB141" width="82.5" height="153.7"/>
			</g>
			<g>
				<path fill="#838484" d="M234.8,870.8c5.7,5.7,8.9,8.9,14.7,14.7h124.8c5.7-5.7,8.9-8.9,14.7-14.7v-14.4H234.8V870.8z"/>
				<path fill="#838484" d="M374.2,659.7H249.5c-5.7,5.7-8.9,8.9-14.7,14.7v13.2v1.2h154.1v-1.2v-13.2
					C383.2,668.7,379.9,665.5,374.2,659.7z"/>
				<rect x="249.5" y="649.8" fill="#6A6A6A" width="124.8" height="9.9"/>
				<polygon fill="#515151" points="374.2,639.9 373.4,639.9 364.1,639.9 357.2,639.9 347.9,639.9 340.9,639.9 331.6,639.9 
					324.6,639.9 315.3,639.9 308.3,639.9 299,639.9 292.1,639.9 282.8,639.9 275.8,639.9 266.5,639.9 259.5,639.9 250.2,639.9 
					249.5,639.9 249.5,649.8 374.2,649.8 				"/>
				<path fill="#FED938" d="M250.2,625.6c0-2.6,2.1-4.7,4.7-4.7l0,0c2.6,0,4.7,2.1,4.7,4.7v14.2h7v-14.2c0-2.6,2.1-4.7,4.7-4.7
					s4.7,2.1,4.7,4.7v14.2h7v-14.2c0-2.6,2.1-4.7,4.7-4.7c2.6,0,4.7,2.1,4.7,4.7v14.2h7v-14.2c0-2.6,2.1-4.7,4.7-4.7
					c2.6,0,4.7,2.1,4.7,4.7v14.2h7v-14.2c0-2.6,2.1-4.7,4.7-4.7c2.6,0,4.7,2.1,4.7,4.7v14.2h7v-14.2c0-2.6,2.1-4.7,4.7-4.7
					c2.6,0,4.7,2.1,4.7,4.7v14.2h7v-14.2c0-2.6,2.1-4.7,4.7-4.7c2.6,0,4.7,2.1,4.7,4.7v14.2h7v-14.2c0-2.6,2.1-4.7,4.7-4.7l0,0
					c2.6,0,4.7,2.1,4.7,4.7v14.2h0.8h6.9v-16.5c0-6.7-5.5-12.2-12.2-12.2H254.8c-6.7,0-12.2,5.5-12.2,12.2v16.5h6.9h0.8V625.6z"/>
				<path fill="#FCC42F" d="M254.9,621L254.9,621c-2.6,0-4.7,2.1-4.7,4.7v14.2h9.3v-14.2C259.5,623.1,257.4,621,254.9,621z"/>
				<path fill="#FCC42F" d="M271.1,621c-2.6,0-4.7,2.1-4.7,4.7v14.2h9.3v-14.2C275.8,623.1,273.7,621,271.1,621z"/>
				<path fill="#FCC42F" d="M287.4,621c-2.6,0-4.7,2.1-4.7,4.7v14.2h9.3v-14.2C292.1,623.1,290,621,287.4,621z"/>
				<path fill="#FCC42F" d="M303.7,621c-2.6,0-4.7,2.1-4.7,4.7v14.2h9.3v-14.2C308.3,623.1,306.3,621,303.7,621z"/>
				<path fill="#FCC42F" d="M320,621c-2.6,0-4.7,2.1-4.7,4.7v14.2h9.3v-14.2C324.6,623.1,322.5,621,320,621z"/>
				<path fill="#FCC42F" d="M336.2,621c-2.6,0-4.7,2.1-4.7,4.7v14.2h9.3v-14.2C340.9,623.1,338.8,621,336.2,621z"/>
				<path fill="#FCC42F" d="M352.5,621c-2.6,0-4.7,2.1-4.7,4.7v14.2h9.3v-14.2C357.2,623.1,355.1,621,352.5,621z"/>
				<path fill="#FCC42F" d="M368.8,621L368.8,621c-2.6,0-4.7,2.1-4.7,4.7v14.2h9.3v-14.2C373.4,623.1,371.4,621,368.8,621z"/>
			</g>
			<g>
				<rect x="234.8" y="688.9" fill="#FCC42F" width="57.1" height="167.4"/>
				<rect x="291.9" y="688.9" fill="#FED938" width="97" height="167.4"/>
			</g>
			<g>
				<path fill="#808080" d="M92.1,869.4c6.2,6.2,9.8,9.8,16,16h136c6.2-6.2,9.8-9.8,16-16v-15.7h-168V869.4z"/>
				<path fill="#808080" d="M244,639.4h-136c-6.2,6.2-9.8,9.8-16,16v14.4v1.3h168v-1.3v-14.4C253.8,649.2,250.3,645.7,244,639.4z"/>
				<rect x="108.1" y="628.6" fill="#666666" width="136" height="10.8"/>
				<polygon fill="#4D4D4D" points="244,617.8 243.2,617.8 233.1,617.8 225.5,617.8 215.3,617.8 207.7,617.8 197.6,617.8 190,617.8 
					179.8,617.8 172.2,617.8 162.1,617.8 154.5,617.8 144.4,617.8 136.8,617.8 126.6,617.8 119,617.8 108.9,617.8 108.1,617.8 
					108.1,628.6 244,628.6 				"/>
				<path fill="#EF6B60" d="M108.9,602.3c0-2.8,2.3-5.1,5.1-5.1l0,0c2.8,0,5.1,2.3,5.1,5.1v15.5h7.6v-15.5c0-2.8,2.3-5.1,5.1-5.1
					s5.1,2.3,5.1,5.1v15.5h7.6v-15.5c0-2.8,2.3-5.1,5.1-5.1c2.8,0,5.1,2.3,5.1,5.1v15.5h7.6v-15.5c0-2.8,2.3-5.1,5.1-5.1
					s5.1,2.3,5.1,5.1v15.5h7.6v-15.5c0-2.8,2.3-5.1,5.1-5.1s5.1,2.3,5.1,5.1v15.5h7.6v-15.5c0-2.8,2.3-5.1,5.1-5.1
					c2.8,0,5.1,2.3,5.1,5.1v15.5h7.6v-15.5c0-2.8,2.3-5.1,5.1-5.1s5.1,2.3,5.1,5.1v15.5h7.6v-15.5c0-2.8,2.3-5.1,5.1-5.1l0,0
					c2.8,0,5.1,2.3,5.1,5.1v15.5h0.8h7.5v-18c0-7.3-6-13.3-13.3-13.3H113.8c-7.3,0-13.3,6-13.3,13.3v18h7.5h0.8V602.3z"/>
				<path fill="#E94D40" d="M114,597.2L114,597.2c-2.8,0-5.1,2.3-5.1,5.1v15.5H119v-15.5C119,599.5,116.8,597.2,114,597.2z"/>
				<path fill="#E94D40" d="M131.7,597.2c-2.8,0-5.1,2.3-5.1,5.1v15.5h10.1v-15.5C136.8,599.5,134.5,597.2,131.7,597.2z"/>
				<path fill="#E94D40" d="M149.4,597.2c-2.8,0-5.1,2.3-5.1,5.1v15.5h10.1v-15.5C154.5,599.5,152.2,597.2,149.4,597.2z"/>
				<path fill="#E94D40" d="M167.2,597.2c-2.8,0-5.1,2.3-5.1,5.1v15.5h10.1v-15.5C172.2,599.5,170,597.2,167.2,597.2z"/>
				<path fill="#E94D40" d="M184.9,597.2c-2.8,0-5.1,2.3-5.1,5.1v15.5H190v-15.5C190,599.5,187.7,597.2,184.9,597.2z"/>
				<path fill="#E94D40" d="M202.7,597.2c-2.8,0-5.1,2.3-5.1,5.1v15.5h10.1v-15.5C207.7,599.5,205.5,597.2,202.7,597.2z"/>
				<path fill="#E94D40" d="M220.4,597.2c-2.8,0-5.1,2.3-5.1,5.1v15.5h10.1v-15.5C225.5,599.5,223.2,597.2,220.4,597.2z"/>
				<path fill="#E94D40" d="M238.1,597.2L238.1,597.2c-2.8,0-5.1,2.3-5.1,5.1v15.5h10.1v-15.5C243.2,599.5,240.9,597.2,238.1,597.2z
					"/>
				<g>
					<rect x="92.1" y="671.2" fill="#E94D40" width="57.4" height="182.5"/>
					<rect x="149.4" y="671.2" fill="#EF6B60" width="110.6" height="182.5"/>
				</g>
			</g>
		</g>
		<g>
			<path fill="#FFFFFF" d="M1294.5,885.4h-246.3c-7.4,0-13.5-6-13.5-13.5v-321c0-7.4,6-13.5,13.5-13.5h246.3c7.4,0,13.5,6,13.5,13.5
				v321C1308,879.4,1301.9,885.4,1294.5,885.4z"/>
			<path fill="#E6E7E8" d="M1090.8,537.5L1090.8,537.5c0,44.5,36.1,80.6,80.6,80.6l0,0c44.5,0,80.6-36.1,80.6-80.6l0,0H1090.8z"/>
			<path fill="#BCBEC0" d="M1109.3,537.5L1109.3,537.5c0,34.3,27.8,62.1,62.1,62.1h0c34.3,0,62.1-27.8,62.1-62.1l0,0H1109.3z"/>
			<g>
				<path fill="#EF6B60" d="M1114.9,724.2c0.5-0.1,1-0.1,1.5-0.1c3.1-7.7,7.4-14.8,12.8-21c13.4-15.5,31.7-23.6,50.8-23.3
					c17.9,0.3,34.6,7.8,47.4,20.7c3.9,3.9,7.3,8.2,10.3,12.8c5.2-0.4,10.2,1,14.3,3.7c-13.6-29.3-41.3-50.9-73.9-52.2
					c-42.2-1.8-78.7,29.7-85.1,74.3c1,0.1,2,0.2,3,0.5C1098.8,731.5,1105.9,725.3,1114.9,724.2z"/>
				<path fill="#FDD836" d="M1180.1,679.7c-19.2-0.3-37.4,7.8-50.8,23.3c-5.4,6.3-9.7,13.4-12.8,21c6.3-0.4,12.2,1.8,16.6,5.7
					c2.3-5.6,5.4-10.9,9.3-15.6c10.3-12.5,24.5-19.2,39.7-19.4c14.3-0.2,27.9,5.5,38.4,15.8c2.1,2.1,4.1,4.3,5.9,6.7
					c2.9-2,6.4-3.4,10.2-3.9c0.4-0.1,0.8-0.1,1.2-0.1c-2.9-4.6-6.4-8.9-10.3-12.8C1214.6,687.5,1197.9,680,1180.1,679.7z"/>
				<path fill="#8AC249" d="M1226.3,717.2c-1.8-2.4-3.8-4.6-5.9-6.7c-10.5-10.3-24.1-16-38.4-15.8c-15.1,0.2-29.4,7-39.7,19.4
					c-3.9,4.7-7,10-9.3,15.6c2.3,2.1,4.3,4.6,5.6,7.5c1.3-0.4,2.7-0.7,4.1-0.9c1.9-0.2,3.8-0.2,5.6,0c1.6-4.1,3.8-8,6.6-11.5
					c7.4-9.4,17.8-14.7,29-15.1c10.8-0.4,21.1,3.6,29.1,11.2c1.9,1.8,3.7,3.8,5.3,6C1220.1,723,1222.8,719.7,1226.3,717.2z"/>
				<path fill="#BDBDBD" d="M1138.7,737.3c-1.3-2.9-3.3-5.5-5.6-7.5c-4.4-3.9-10.3-6.1-16.6-5.7c-0.5,0-1,0.1-1.5,0.1
					c-9,1.1-16.1,7.3-18.8,15.3c-1-0.2-2-0.4-3-0.5c-1.3-0.1-2.6-0.1-3.9,0.1c-10.5,1.3-17.9,10.9-16.6,21.4
					c1.3,10.5,10.9,17.9,21.4,16.6c1.5-0.2,3-0.6,4.4-1.1c2.2,11.1,12.6,18.7,23.9,17.3c8-1,14.5-6.3,17.3-13.3
					c2.8,0.8,5.7,1,8.7,0.6c12.2-1.6,20.9-12.7,19.3-24.9c-1.3-10.3-9.5-18.1-19.4-19.3c-1.8-0.2-3.7-0.2-5.6,0
					C1141.3,736.5,1140,736.9,1138.7,737.3z"/>
				<path fill="#BDBDBD" d="M1265.2,721.4c-2.4,0.3-4.6,1-6.6,2.1c-1.7-2.6-3.9-4.8-6.5-6.5c-4.1-2.7-9.1-4.1-14.3-3.7
					c-0.4,0-0.8,0.1-1.2,0.1c-3.8,0.5-7.2,1.9-10.2,3.9c-3.5,2.4-6.3,5.8-8,9.7c-0.7,1.6-1.2,3.3-1.5,5c-1.4-0.1-2.8,0-4.2,0.1
					c-12.2,1.6-20.9,12.7-19.3,24.9c1.6,12.2,12.7,20.9,24.9,19.3c3-0.4,5.8-1.4,8.3-2.8c4.5,6.1,12.1,9.6,20.1,8.6
					c11.4-1.4,19.5-11.4,18.8-22.7c1.5,0.2,3,0.2,4.5,0c10.5-1.3,17.9-10.9,16.6-21.4C1285.3,727.5,1275.7,720,1265.2,721.4z"/>
			</g>
		</g>
		<g>
			<path fill="#FFFFFF" d="M905.6,601c-9.2-12.5-23.9-19.9-39.4-19.9h-93.2h-93.2c-15.6,0-30.2,7.4-39.4,19.9l-68.7,93.2l41.7,43.8
				l41.7-36.7v213.1h236V701.3l41.7,36.7l41.7-43.8L905.6,601z"/>
			<path fill="#E6E7E8" d="M720.3,581.1L720.3,581.1c0,29.1,23.6,52.6,52.6,52.6l0,0c29.1,0,52.6-23.6,52.6-52.6l0,0H720.3z"/>
			<path fill="#BCBEC0" d="M732.4,581.1L732.4,581.1c0,22.4,18.1,40.5,40.5,40.5h0c22.4,0,40.5-18.1,40.5-40.5l0,0H732.4z"/>
			<g>
				<path fill="#C49A6C" d="M678.6,608.8v261.4h188.6V608.8H678.6z M849.2,626.7v225.5v0h-28.4v0H696.6V626.7h124.2v0L849.2,626.7
					L849.2,626.7z"/>
				<rect x="696.6" y="626.7" fill="#B3B3B3" width="152.6" height="225.5"/>
			</g>
			<g opacity="0.38">
				<path fill="#FFFFFF" d="M718.3,719.2c0.2,0,0.4,0.1,0.6,0.1c2.1-5.5,6.8-9.4,12.4-10.2c0.2,0,0.4,0,0.6-0.1
					c0.1-0.3,0.2-0.5,0.3-0.8c0.1-0.3,0.2-0.6,0.4-0.9c0.1-0.3,0.3-0.7,0.5-1c0.1-0.3,0.3-0.6,0.4-0.9c0.2-0.3,0.3-0.7,0.5-1
					c0.1-0.3,0.3-0.6,0.4-0.8c0.2-0.3,0.4-0.7,0.5-1c0.1-0.3,0.3-0.5,0.4-0.8c0.2-0.3,0.4-0.7,0.6-1c0.2-0.2,0.3-0.5,0.5-0.7
					c0.2-0.3,0.5-0.7,0.7-1c0.1-0.2,0.3-0.4,0.4-0.7c0.3-0.4,0.5-0.7,0.8-1.1c0.1-0.2,0.3-0.4,0.4-0.5c0.4-0.5,0.8-1.1,1.3-1.6
					c0.5-0.6,1.1-1.3,1.6-1.9c0.2-0.2,0.4-0.4,0.6-0.6c0.4-0.4,0.7-0.8,1.1-1.1c0.2-0.2,0.5-0.5,0.7-0.7c0.3-0.3,0.7-0.7,1-1
					c0.3-0.2,0.5-0.4,0.8-0.7c0.3-0.3,0.7-0.6,1-0.9c0.3-0.2,0.6-0.4,0.8-0.6c0.4-0.3,0.7-0.5,1.1-0.8c0.3-0.2,0.6-0.4,0.9-0.6
					c0.4-0.2,0.7-0.5,1.1-0.7c0.3-0.2,0.6-0.4,0.9-0.5c0.4-0.2,0.7-0.4,1.1-0.7c0.3-0.2,0.6-0.3,0.9-0.5c0.4-0.2,0.8-0.4,1.1-0.6
					c0.3-0.1,0.6-0.3,0.9-0.4c0.4-0.2,0.8-0.4,1.2-0.5c0.3-0.1,0.6-0.2,1-0.4c0.4-0.2,0.8-0.3,1.2-0.5c0.3-0.1,0.6-0.2,1-0.3
					c0.4-0.1,0.8-0.3,1.2-0.4c0.3-0.1,0.7-0.2,1-0.3c0.4-0.1,0.8-0.2,1.2-0.3c0.3-0.1,0.7-0.1,1-0.2c0.4-0.1,0.8-0.2,1.3-0.2
					c0.3-0.1,0.7-0.1,1-0.1c0.4-0.1,0.8-0.1,1.3-0.2c0.4,0,0.7-0.1,1.1-0.1c0.4,0,0.8-0.1,1.2-0.1c0.4,0,0.7,0,1.1,0
					c0.3,0,0.6,0,0.9,0c0.2,0,0.4,0,0.6,0c11.4,0.2,22.4,5.2,30.9,14.1c0.6,0.6,1.2,1.3,1.8,2c0.2,0.2,0.4,0.5,0.6,0.7
					c0.4,0.5,0.8,0.9,1.1,1.4c0.2,0.3,0.4,0.6,0.6,0.9c0.3,0.4,0.7,0.9,1,1.3c0.2,0.3,0.4,0.6,0.6,0.9c0.2,0.4,0.5,0.8,0.7,1.1
					c0.2,0,0.5,0,0.7,0c0.1,0,0.1,0,0.2,0c0.4,0,0.7,0,1.1,0.1c0.1,0,0.3,0,0.4,0c0.3,0,0.5,0.1,0.8,0.1c0.1,0,0.3,0,0.4,0.1
					c0.3,0.1,0.7,0.1,1,0.2c0.1,0,0.2,0,0.2,0.1c0.3,0.1,0.6,0.2,0.8,0.3c0.1,0,0.2,0.1,0.4,0.1c0.3,0.1,0.5,0.2,0.8,0.3
					c0.1,0,0.2,0.1,0.3,0.1c0,0,0.1,0,0.1,0c-9.3-19.2-26.6-31.6-45.7-32.4C745.2,669.6,722.6,690.3,718.3,719.2z"/>
				<path fill="#FFFFFF" d="M808.8,701.9c-1.7-2.7-3.7-5.2-5.8-7.4c-8.2-8.6-18.8-13.5-29.8-13.6c-0.2,0-0.4,0-0.6,0
					c-12,0-23.2,5.4-31.4,15.3c-3.2,3.8-5.7,8.1-7.6,12.8c0.1,0,0.1,0,0.2,0c0.2,0,0.4,0,0.6,0c0.3,0,0.5,0,0.8,0.1
					c0.2,0,0.4,0.1,0.6,0.1c0.2,0,0.5,0.1,0.7,0.1c0.2,0,0.4,0.1,0.6,0.1c0.3,0.1,0.5,0.2,0.8,0.2c0.2,0.1,0.5,0.2,0.7,0.2
					c0.4,0.1,0.7,0.3,1,0.4c0.2,0.1,0.3,0.2,0.5,0.3c0.2,0.1,0.5,0.3,0.7,0.4c0.2,0.1,0.3,0.2,0.5,0.3c0.2,0.2,0.5,0.3,0.7,0.5
					c0.1,0.1,0.3,0.2,0.4,0.3c0.1,0.1,0.2,0.1,0.2,0.2c0-0.1,0.1-0.2,0.1-0.2c0.1-0.2,0.2-0.4,0.3-0.6c0.1-0.2,0.2-0.5,0.3-0.7
					c0.1-0.2,0.2-0.4,0.3-0.6c0.1-0.2,0.2-0.5,0.4-0.7c0.1-0.2,0.2-0.4,0.3-0.6c0.1-0.2,0.3-0.5,0.4-0.7c0.1-0.2,0.2-0.4,0.3-0.6
					c0.1-0.2,0.3-0.5,0.4-0.7c0.1-0.2,0.2-0.4,0.3-0.6c0.2-0.2,0.3-0.5,0.5-0.7c0.1-0.2,0.2-0.3,0.3-0.5c0.2-0.3,0.4-0.5,0.6-0.8
					c0.1-0.1,0.2-0.3,0.3-0.4c0.3-0.4,0.6-0.8,0.9-1.2c6.7-8.4,15.9-13.1,25.9-13.3l0.5,0c2.3,0,4.5,0.2,6.7,0.7
					c6.6,1.4,12.8,4.9,17.9,10.1c0,0,0,0,0,0c0.6,0.6,1.1,1.2,1.6,1.8c0.1,0.1,0.1,0.2,0.2,0.2c0.5,0.6,1,1.2,1.5,1.8
					c0,0.1,0.1,0.1,0.1,0.2c0,0,0,0,0.1,0c0.4-0.3,0.8-0.5,1.2-0.7c0.1,0,0.2-0.1,0.2-0.1c0.4-0.2,0.8-0.4,1.3-0.6
					c0.1,0,0.1,0,0.2-0.1c0.4-0.2,0.9-0.3,1.3-0.4c0,0,0.1,0,0.1,0c0.5-0.1,0.9-0.2,1.4-0.3C808.7,701.9,808.7,701.9,808.8,701.9z"
					/>
				<path fill="#FFFFFF" d="M798.4,708.7c0.3-0.4,0.6-0.8,0.9-1.2c0.1-0.1,0.1-0.1,0.2-0.2c0.3-0.3,0.6-0.7,0.9-1
					c0.1-0.1,0.1-0.1,0.2-0.2c0.3-0.3,0.7-0.7,1.1-1c0,0,0.1,0,0.1-0.1c-1-1.3-2.1-2.6-3.3-3.8c-6.6-6.7-14.9-10.4-23.6-10.4l-0.4,0
					c-9.6,0.1-18.4,4.7-24.8,12.7c-2.3,2.9-4.2,6.2-5.6,9.8c0.1,0.1,0.2,0.3,0.4,0.4c0.1,0.1,0.3,0.3,0.4,0.4
					c0.2,0.2,0.4,0.4,0.5,0.6c0.1,0.1,0.2,0.3,0.4,0.4c0.2,0.2,0.3,0.5,0.5,0.8c0.1,0.1,0.2,0.3,0.3,0.4c0.2,0.4,0.5,0.8,0.7,1.2
					c0.7-0.2,1.4-0.4,2.2-0.5c0.3,0,0.6-0.1,0.9-0.1c0.1,0,0.2,0,0.3,0c0.2,0,0.4,0,0.6,0c0.1,0,0.2,0,0.3,0c0.2,0,0.4,0,0.6,0
					c0.1,0,0.2,0,0.3,0c0.1,0,0.1,0,0.2,0c1-2.7,2.4-5.1,4.1-7.4c4.8-6.4,11.6-10.1,19.1-10.4c7-0.3,13.8,2.5,19.2,7.7
					c1,1,1.9,2,2.7,3.1c0,0,0.1-0.1,0.1-0.1c0.2-0.4,0.4-0.8,0.7-1.2C798.3,708.9,798.3,708.8,798.4,708.7z"/>
				<path fill="#FFFFFF" d="M752.7,718.8c-1.1-0.1-2.3-0.1-3.4,0c-0.8,0.1-1.7,0.3-2.5,0.6l-0.6,0.2l-0.3-0.6
					c-0.8-1.8-2-3.4-3.4-4.8c-2.8-2.6-6.4-3.9-10.1-3.7c-0.3,0-0.6,0-0.9,0.1c-5.3,0.7-9.7,4.5-11.5,9.8l-0.2,0.7l-0.6-0.2
					c-0.6-0.1-1.2-0.2-1.8-0.3c-0.8-0.1-1.6,0-2.3,0.1c-3.1,0.4-5.8,2-7.7,4.6c-1.9,2.6-2.7,5.7-2.3,8.9c0.7,6,5.6,10.6,11.4,10.6
					c0.5,0,1,0,1.5-0.1c0.9-0.1,1.8-0.4,2.7-0.7l0.8-0.3l0.2,0.9c1.2,6.4,6.6,11.1,12.8,11.1c0.6,0,1.1,0,1.7-0.1
					c4.7-0.6,8.7-3.9,10.5-8.5l0.2-0.6l0.6,0.2c1.7,0.5,3.5,0.6,5.3,0.4c3.6-0.5,6.8-2.4,9-5.4c2.2-3,3.2-6.7,2.7-10.5
					C763.7,724.6,758.9,719.6,752.7,718.8z"/>
				<path fill="#FFFFFF" d="M840.6,719.2c-0.7-6-5.6-10.6-11.4-10.6c-0.5,0-1,0-1.5,0.1c-1.4,0.2-2.7,0.6-4,1.3l-0.6,0.3l-0.4-0.6
					c-1-1.7-2.4-3.1-4-4.2c-2.3-1.6-4.8-2.4-7.5-2.4c-0.4,0-0.8,0-1.2,0c-0.3,0-0.5,0-0.8,0.1c-2.3,0.3-4.3,1.1-6.2,2.5
					c-2.1,1.5-3.8,3.7-4.9,6.2c-0.4,1-0.7,2.1-0.9,3.2l-0.1,0.7l-0.6,0c-0.8-0.1-1.7,0-2.6,0.1c-7.4,1-12.7,8.1-11.7,15.9
					c0.9,7.1,6.6,12.4,13.4,12.4c0.6,0,1.2,0,1.7-0.1c1.8-0.2,3.5-0.8,5-1.8l0.6-0.3l0.4,0.5c2.8,4,7.5,6.1,12.2,5.4
					c6.8-0.9,11.8-7.2,11.4-14.4l-0.1-0.9l0.9,0.1c0.9,0.1,1.8,0.1,2.7,0C836.9,731.9,841.4,725.8,840.6,719.2z"/>
			</g>
			<path fill="#FDD836" d="M696.6,626.7h152.6v48.7c0,2.4-1.9,4.3-4.3,4.3l0,0c-2.4,0-4.3-1.9-4.3-4.3v-20c0-3.6-2.9-6.5-6.5-6.5
				l0,0c-3.6,0-6.5,2.9-6.5,6.5v14.4c0,3.1-2.5,5.7-5.7,5.7l0,0c-3.1,0-5.7-2.5-5.7-5.7v-21.4c0-4.1-3.3-7.4-7.4-7.4h0
				c-4.1,0-7.4,3.3-7.4,7.4v17.1c0,2.9-2.4,5.3-5.3,5.3l0,0c-2.9,0-5.3-2.4-5.3-5.3v-22.1c0-2.5-2-4.5-4.5-4.5l0,0
				c-2.5,0-4.5,2-4.5,4.5v2.7c0,3.9-3.2,7.1-7.1,7.1h0c-3.9,0-7.1-3.2-7.1-7.1v-1.5c0-3.4-2.7-6.1-6.1-6.1l0,0
				c-3.4,0-6.1,2.7-6.1,6.1v14.2c0,3.2-2.6,5.9-5.9,5.9l0,0c-3.2,0-5.9-2.6-5.9-5.9V642c0-2.5-2-4.6-4.6-4.6l0,0
				c-2.5,0-4.6,2-4.6,4.6v23.4c0,2.9-2.4,5.3-5.3,5.3l0,0c-2.9,0-5.3-2.4-5.3-5.3v-19.7c0-2.6-2.1-4.8-4.8-4.8l0,0
				c-2.6,0-4.8,2.1-4.8,4.8v4.9c0,2.7-2.2,4.8-4.8,4.8l0,0c-2.7,0-4.8,2.2-4.8,4.8v10c0,2.3-1.9,4.2-4.2,4.2l0,0
				c-2.3,0-4.2-1.9-4.2-4.2V626.7z"/>
			<g>
				<path fill="#C49A6C" d="M887.4,568.7L887.4,568.7l-0.4,0l0,0h-76.4v35h71h5.8h4.9V574C892.3,571.2,890.1,568.9,887.4,568.7z"/>
				<path fill="#A97C50" d="M815.9,603.6h-10.8V574c0-3,2.4-5.4,5.4-5.4l0,0c3,0,5.4,2.4,5.4,5.4V603.6z"/>
				<path fill="#91653A" d="M805.1,613.1L805.1,613.1c1.3-3.1,1.3-6.5,0-9.5l0,0h22.6v9.5H805.1z"/>
				<path fill="#B4885B" d="M892.3,603.6L892.3,603.6c-1.3,3-1.3,6.5,0,9.5l0,0h-76.4l0,0c-1.3-3-1.3-6.5,0-9.5l0,0H892.3z"/>
				<rect x="805.1" y="613.1" fill="#A97C50" width="10.8" height="9.6"/>
				<rect x="815.9" y="613.1" fill="#C49A6C" width="76.4" height="9.6"/>
				<g>
					<polygon fill="#CE3D36" points="813.1,641 811,646.2 808.8,641 808.8,622.7 813.1,622.7 					"/>
					<rect x="813.1" y="622.7" fill="#EF6B60" width="75.9" height="18.2"/>
					<polygon fill="#E84D42" points="889,641 886.8,646.2 811,646.2 813.1,641 					"/>
				</g>
			</g>
		</g>
	</g>
</g>
</svg>
